<svg width="720" height="432" viewBox="0 0 720 432" xmlns="http://www.w3.org/2000/svg"><rect x="0" y="6" width="720" height="118" rx="14" fill="#12161F" stroke="#22D3EE" stroke-width="1.5" stroke-dasharray="6 4" opacity="0.55" /><text x="18" y="34" fill="#22D3EE" font-size="15" font-weight="bold" font-family="Microsoft YaHei">L0 · 研判智能体集群（并行，各持独立视角）</text><rect x="18" y="48" width="158" height="58" rx="9" fill="#161A24" stroke="#22D3EE" stroke-width="1.5" /><text x="97" y="74" fill="#EEF1F6" font-size="13" text-anchor="middle" font-family="Microsoft YaHei">事实抽取智能体</text><text x="97" y="93" fill="#666D80" font-size="11" text-anchor="middle" font-family="Microsoft YaHei">结论 + 证据候选</text><rect x="190" y="48" width="158" height="58" rx="9" fill="#161A24" stroke="#22D3EE" stroke-width="1.5" /><text x="269" y="74" fill="#EEF1F6" font-size="13" text-anchor="middle" font-family="Microsoft YaHei">时序核查智能体</text><text x="269" y="93" fill="#666D80" font-size="11" text-anchor="middle" font-family="Microsoft YaHei">时间线一致性</text><rect x="362" y="48" width="158" height="58" rx="9" fill="#161A24" stroke="#22D3EE" stroke-width="1.5" /><text x="441" y="74" fill="#EEF1F6" font-size="13" text-anchor="middle" font-family="Microsoft YaHei">立场研判智能体</text><text x="441" y="93" fill="#666D80" font-size="11" text-anchor="middle" font-family="Microsoft YaHei">口径与倾向识别</text><rect x="534" y="48" width="168" height="58" rx="9" fill="#161A24" stroke="#22D3EE" stroke-width="1.5" /><text x="618" y="74" fill="#EEF1F6" font-size="13" text-anchor="middle" font-family="Microsoft YaHei">反证检索智能体</text><text x="618" y="93" fill="#666D80" font-size="11" text-anchor="middle" font-family="Microsoft YaHei">主动寻找反例</text><path d="M360 124 L360 156" stroke="#2C3346" stroke-width="2" /><path d="M354 148 L360 158 L366 148 Z" fill="#2C3346" /><rect x="0" y="160" width="720" height="118" rx="14" fill="#12161F" stroke="#60A5FA" stroke-width="1.5" stroke-dasharray="6 4" opacity="0.55" /><text x="18" y="188" fill="#60A5FA" font-size="15" font-weight="bold" font-family="Microsoft YaHei">L1 · 仲裁与消解层（冲突识别 → 博弈对抗 → 证据加权）</text><rect x="18" y="202" width="158" height="58" rx="9" fill="#161A24" stroke="#60A5FA" stroke-width="1.5" /><text x="97" y="228" fill="#EEF1F6" font-size="13" text-anchor="middle" font-family="Microsoft YaHei">冲突识别</text><text x="97" y="247" fill="#666D80" font-size="11" text-anchor="middle" font-family="Microsoft YaHei">事实 / 口径 / 立场</text><rect x="190" y="202" width="158" height="58" rx="9" fill="#161A24" stroke="#FBBF24" stroke-width="1.5" /><text x="269" y="228" fill="#EEF1F6" font-size="13" text-anchor="middle" font-family="Microsoft YaHei">博弈对抗</text><text x="269" y="247" fill="#666D80" font-size="11" text-anchor="middle" font-family="Microsoft YaHei">正方 / 反方 / 仲裁</text><rect x="362" y="202" width="158" height="58" rx="9" fill="#161A24" stroke="#FBBF24" stroke-width="1.5" /><text x="441" y="228" fill="#EEF1F6" font-size="13" text-anchor="middle" font-family="Microsoft YaHei">证据加权消解</text><text x="441" y="247" fill="#666D80" font-size="11" text-anchor="middle" font-family="Microsoft YaHei">按可信度重算</text><rect x="534" y="202" width="168" height="58" rx="9" fill="#161A24" stroke="#A78BFA" stroke-width="1.5" /><text x="618" y="228" fill="#EEF1F6" font-size="13" text-anchor="middle" font-family="Microsoft YaHei">分歧留档</text><text x="618" y="247" fill="#666D80" font-size="11" text-anchor="middle" font-family="Microsoft YaHei">少数意见不覆盖</text><path d="M360 278 L360 310" stroke="#2C3346" stroke-width="2" /><path d="M354 302 L360 312 L366 302 Z" fill="#2C3346" /><rect x="0" y="314" width="720" height="118" rx="14" fill="#12161F" stroke="#34D399" stroke-width="1.5" stroke-dasharray="6 4" opacity="0.55" /><text x="18" y="342" fill="#34D399" font-size="15" font-weight="bold" font-family="Microsoft YaHei">L2 · 审计与追溯层（可查、可复现、可干预）</text><rect x="18" y="356" width="158" height="58" rx="9" fill="#161A24" stroke="#34D399" stroke-width="1.5" /><text x="97" y="382" fill="#EEF1F6" font-size="13" text-anchor="middle" font-family="Microsoft YaHei">证据图谱</text><text x="97" y="401" fill="#666D80" font-size="11" text-anchor="middle" font-family="Microsoft YaHei">结论→证据→来源</text><rect x="190" y="356" width="158" height="58" rx="9" fill="#161A24" stroke="#34D399" stroke-width="1.5" /><text x="269" y="382" fill="#EEF1F6" font-size="13" text-anchor="middle" font-family="Microsoft YaHei">推理树</text><text x="269" y="401" fill="#666D80" font-size="11" text-anchor="middle" font-family="Microsoft YaHei">中间结论留痕</text><rect x="362" y="356" width="158" height="58" rx="9" fill="#161A24" stroke="#34D399" stroke-width="1.5" /><text x="441" y="382" fill="#EEF1F6" font-size="13" text-anchor="middle" font-family="Microsoft YaHei">防篡改哈希链</text><text x="441" y="401" fill="#666D80" font-size="11" text-anchor="middle" font-family="Microsoft YaHei">审计留痕</text><rect x="534" y="356" width="168" height="58" rx="9" fill="#161A24" stroke="#34D399" stroke-width="1.5" /><text x="618" y="382" fill="#EEF1F6" font-size="13" text-anchor="middle" font-family="Microsoft YaHei">人工复核闸</text><text x="618" y="401" fill="#666D80" font-size="11" text-anchor="middle" font-family="Microsoft YaHei">可干预后重算</text></svg>